<?xml version="1.0" encoding="UTF-8"?>
<svg version="1.1" xmlns="http://www.w3.org/2000/svg" width="263" height="284">
<path d="M0 0 C1.20567627 0.00644531 2.41135254 0.01289062 3.65356445 0.01953125 C12.52722316 0.20245606 18.89951437 1.23007662 26.75 5.5 C28.1046925 6.14130459 29.46304778 6.77490696 30.82421875 7.40234375 C44.70466649 13.89407388 44.70466649 13.89407388 49.75 19.5 C50.42417969 20.23992187 51.09835938 20.97984375 51.79296875 21.7421875 C60.42319184 31.83436096 62.82954789 41.37459734 62.75 54.5 C61.75 57.5 61.75 57.5 59.9375 58.4375 C57.75 58.5 57.75 58.5 55.625 56.8125 C52.29473479 52.70517291 51.50311644 49.49593711 50.9375 44.25 C50.08708714 38.11734789 48.42709993 34.43505517 44.75 29.5 C44.42 29.83 44.09 30.16 43.75 30.5 C43.90262769 33.54357576 44.13613891 36.53302802 44.4375 39.5625 C44.50388672 40.39716797 44.57027344 41.23183594 44.63867188 42.09179688 C45.52612151 51.05713448 48.99426213 56.78497248 54.75 63.5 C54.75 64.16 54.75 64.82 54.75 65.5 C55.74 65.83 56.73 66.16 57.75 66.5 C62.2402156 73.49945374 63.45779592 79.17374618 62.75 87.5 C60.49786495 94.61200542 56.54089063 100.1226875 49.828125 103.625 C38.11144789 108.55833773 26.25699495 108.660118 13.75 108.5 C13.75 109.16 13.75 109.82 13.75 110.5 C25.63 110.005 25.63 110.005 37.75 109.5 C41.32108302 120.21324907 39.39371347 129.49164328 37.25 140.375 C35.57200278 149.4478852 34.27266583 158.26013336 34.3125 167.5 C34.31507813 168.34675293 34.31765625 169.19350586 34.3203125 170.06591797 C34.42275401 174.21223815 34.59589464 177.84286936 36.75 181.5 C38.5291692 182.75971477 38.5291692 182.75971477 40.625 183.5 C44.44073934 185.24512943 46.61816725 186.74797437 48.75 190.5 C49.90852453 193.95411942 50.48856447 196.92800956 48.8984375 200.3125 C46.96224927 202.9107397 45.32102748 204.3574591 42.16796875 205.14453125 C37.81001407 205.59775854 33.50412997 205.72305151 29.125 205.75 C27.8565625 205.7809375 27.8565625 205.7809375 26.5625 205.8125 C23.0300884 205.83478651 20.44044443 205.82447697 17.21484375 204.30859375 C15.30437934 201.94980703 15.18781819 200.32056091 14.9375 197.3125 C14.01800644 191.00143055 11.28609579 187.78352921 6.75 183.5 C6.19054687 183.09394531 5.63109375 182.68789062 5.0546875 182.26953125 C2.91868731 179.37250105 3.27801788 176.14511624 3.3125 172.6875 C3.29251953 171.98818359 3.27253906 171.28886719 3.25195312 170.56835938 C3.25673844 165.45286201 4.37672684 162.52918738 7.75 158.5 C9.93359375 156.70703125 9.93359375 156.70703125 12.1875 155.3125 C12.96996094 154.81621094 13.75242188 154.31992188 14.55859375 153.80859375 C16.26513063 152.78953875 18.00227782 151.82168285 19.75 150.875 C21.9296413 149.65886372 21.9296413 149.65886372 22.5625 147.3125 C22.624375 146.714375 22.68625 146.11625 22.75 145.5 C16.18948519 146.30006278 10.95263138 148.45350893 5.75 152.5 C5.09 152.5 4.43 152.5 3.75 152.5 C3.31929199 153.36347046 3.31929199 153.36347046 2.87988281 154.24438477 C2.16806111 155.66541345 1.44496071 157.08090153 0.70605469 158.48803711 C-2.20355412 164.40135681 -2.89442966 169.5219374 -3 176.0625 C-3.02964844 176.97580078 -3.05929688 177.88910156 -3.08984375 178.83007812 C-3.1596885 181.05346923 -3.21279745 183.27586468 -3.25 185.5 C-2.49074219 185.61730469 -1.73148438 185.73460937 -0.94921875 185.85546875 C3.47042889 186.91081153 6.52394911 189.77238284 9.125 193.4375 C10.24096244 197.12017604 10.41682098 200.17476839 8.66601562 203.65429688 C5.83432137 206.38207575 3.65692578 206.01741536 -0.21875 206.03125 C-0.89546753 206.0350769 -1.57218506 206.03890381 -2.26940918 206.04284668 C-3.69833872 206.04556531 -5.12731807 206.03820717 -6.55615234 206.02148438 C-8.74299086 206.00006864 -10.92654486 206.02128187 -13.11328125 206.046875 C-14.50261141 206.04423171 -15.89193954 206.03910669 -17.28125 206.03125 C-19.17713867 206.02448242 -19.17713867 206.02448242 -21.11132812 206.01757812 C-24.25 205.5 -24.25 205.5 -26.13720703 203.62841797 C-27.43423266 201.14762169 -28.03510441 198.85997044 -28.625 196.125 C-30.19837095 189.93860426 -32.49561549 186.60203028 -37.625 182.6875 C-39.55709211 180.08660677 -39.38526452 179.54163124 -39 176.4375 C-38.87625 175.65117187 -38.7525 174.86484375 -38.625 174.0546875 C-36.99037137 162.91877994 -38.7923404 152.83823205 -45.38671875 143.609375 C-51.9001085 136.23572623 -59.18549699 133.03197395 -68.8125 132.1875 C-71.79382561 132.4585296 -73.333086 132.83351914 -75.96484375 134.01953125 C-77.04894531 134.50808594 -78.13304688 134.99664062 -79.25 135.5 C-77.67412109 135.62955078 -77.67412109 135.62955078 -76.06640625 135.76171875 C-67.82411907 136.54866093 -61.13477402 137.48941446 -54.25 142.5 C-54.25 143.16 -54.25 143.82 -54.25 144.5 C-53.6725 144.70625 -53.095 144.9125 -52.5 145.125 C-47.1747 148.37935 -45.34719049 154.10931039 -43.79296875 159.87109375 C-41.88232177 169.12192409 -44.16683847 176.7184953 -47.25 185.5 C-46.64671875 185.73074219 -46.0434375 185.96148437 -45.421875 186.19921875 C-40.54768912 188.18820105 -36.87089793 189.69502046 -34.25 194.5 C-33.45338525 197.34107357 -33.29873033 199.47871947 -33.25 202.5 C-34.40769958 204.21594238 -34.40769958 204.21594238 -36.25 205.5 C-38.70741272 205.89440918 -38.70741272 205.89440918 -41.66430664 205.91992188 C-42.77298599 205.93583374 -43.88166534 205.95174561 -45.02394104 205.96813965 C-46.22389206 205.96834106 -47.42384308 205.96854248 -48.66015625 205.96875 C-50.51597572 205.98017029 -50.51597572 205.98017029 -52.4092865 205.99182129 C-55.70503812 206.00541218 -59.00038558 206.00322345 -62.29614258 205.99743652 C-65.61625795 206.00165752 -68.93597044 206.04898826 -72.25585938 206.0859375 C-74.80728767 206.09114861 -77.35872263 206.09383263 -79.91015625 206.09375 C-81.09593765 206.11014526 -82.28171906 206.12654053 -83.50343323 206.14343262 C-93.16053866 206.06395982 -100.16725853 203.67092656 -107.1875 196.9375 C-108.88588589 195.13061771 -110.27444835 193.46049549 -111.58203125 191.34765625 C-113.88860171 188.79260279 -115.6216764 188.84297702 -119 188.5 C-126.25566569 187.50103154 -131.42672444 185.28793067 -136.25 179.5 C-136.25 178.84 -136.25 178.18 -136.25 177.5 C-136.91 177.5 -137.57 177.5 -138.25 177.5 C-143.73532813 168.6439168 -145.57018361 161.7531072 -145.1875 151.3125 C-145.17444824 150.63501709 -145.16139648 149.95753418 -145.14794922 149.25952148 C-144.81087035 143.69772013 -143.19888784 141.18336891 -139.25 137.5 C-136.8984375 136.80859375 -136.8984375 136.80859375 -134.625 136.9375 C-133.86960937 136.95683594 -133.11421875 136.97617188 -132.3359375 136.99609375 C-129.66314448 137.64176847 -128.76173581 138.18680425 -127.25 140.5 C-127.02734375 143.57421875 -127.02734375 143.57421875 -127.1875 147.1875 C-127.35931212 155.04729115 -127.35931212 155.04729115 -125.25 162.5 C-122.39164435 163.92917783 -120.42551166 164.5 -117.25 164.5 C-117.44464844 163.98050781 -117.63929687 163.46101562 -117.83984375 162.92578125 C-119.6208039 152.39267406 -111.81284323 139.0519057 -106.25 130.5 C-100.64209868 122.81717519 -94.17174649 116.18371083 -87.1875 109.75 C-85.93259766 108.58210938 -85.93259766 108.58210938 -84.65234375 107.390625 C-82.38187878 105.60378752 -81.06663315 104.89029559 -78.25 104.5 C-78.25 103.84 -78.25 103.18 -78.25 102.5 C-77.15300781 101.96632813 -76.05601563 101.43265625 -74.92578125 100.8828125 C-64.06882923 95.4559887 -64.06882923 95.4559887 -57.78125 85.37109375 C-57.6059375 84.75363281 -57.430625 84.13617188 -57.25 83.5 C-52.88530512 84.37482922 -50.02562119 86.77972333 -46.5625 89.4375 C-39.17119434 95.05760606 -39.17119434 95.05760606 -30.25 96.5 C-26.99782237 95.55924566 -24.09000083 94.35107197 -21.25 92.5 C-20.92 91.84 -20.59 91.18 -20.25 90.5 C-19.59 90.5 -18.93 90.5 -18.25 90.5 C-17.42892154 70.92131627 -17.42892154 70.92131627 -23.25 52.5 C-24.81594397 54.06594397 -24.41994611 55.57331703 -24.4375 57.75 C-24.40711675 61.98542543 -23.93114292 66.00885729 -23.25 70.1875 C-21.35475736 81.88856325 -21.35475736 81.88856325 -24.125 86.875 C-26.25 89.5 -26.25 89.5 -28.25 90.5 C-37.30555178 91.38779919 -42.65524467 86.35499267 -49.33203125 80.98828125 C-51.18253654 79.452478 -51.18253654 79.452478 -53.25 78.5 C-53.25 77.84 -53.25 77.18 -53.25 76.5 C-53.81847656 76.23832031 -54.38695313 75.97664063 -54.97265625 75.70703125 C-61.49493759 72.25011027 -68.9015914 66.6376723 -72.5625 60.1875 C-74.05455995 54.35490202 -74.04905417 50.29431952 -71 45.125 C-69.10728341 42.19245763 -67.46692841 40.86100817 -64.25 39.5 C-64.25 38.84 -64.25 38.18 -64.25 37.5 C-63.63125 37.4175 -63.0125 37.335 -62.375 37.25 C-59.54178738 36.25004261 -59.54305703 35.16000304 -58.25 32.5 C-52.70513327 24.84652198 -46.24206796 16.72681245 -38.25 11.5 C-37.26 11.5 -36.27 11.5 -35.25 11.5 C-35.25 10.84 -35.25 10.18 -35.25 9.5 C-33.27382862 8.55620254 -31.2938794 7.62031436 -29.3125 6.6875 C-28.21035156 6.16542969 -27.10820312 5.64335938 -25.97265625 5.10546875 C-24.73564265 4.56142264 -23.49452388 4.02663948 -22.25 3.5 C-21.59531738 3.21914551 -20.94063477 2.93829102 -20.26611328 2.64892578 C-13.58319184 0.08517261 -7.09913162 -0.03940405 0 0 Z M-10 50.4375 C-11.26198986 52.51978327 -11.92888111 54.09160831 -12.25 56.5 C-11.92 57.16 -11.59 57.82 -11.25 58.5 C-8.84122743 58.38658466 -8.84122743 58.38658466 -6.25 57.5 C-5.5384375 56.2315625 -5.5384375 56.2315625 -4.8125 54.9375 C-3.25 52.5 -3.25 52.5 -0.375 51.8125 C4.0845858 52.79360888 5.1491626 54.82822955 7.75 58.5 C9.07 57.84 10.39 57.18 11.75 56.5 C11.46346097 53.1570446 10.74496782 51.49308075 8.75 48.75 C2.23006888 43.86005166 -4.51362685 44.36330116 -10 50.4375 Z M32.75 45.5 C32.42 47.15 32.09 48.8 31.75 50.5 C33.4 50.5 35.05 50.5 36.75 50.5 C37.08 49.51 37.41 48.52 37.75 47.5 C37.42 46.84 37.09 46.18 36.75 45.5 C35.43 45.5 34.11 45.5 32.75 45.5 Z M27.75 66.5 C27.75 67.82 27.75 69.14 27.75 70.5 C31.0611013 71.60370043 32.99748949 71.42673641 36.4375 71.0625 C37.43136719 70.96066406 38.42523438 70.85882813 39.44921875 70.75390625 C40.20847656 70.67011719 40.96773437 70.58632812 41.75 70.5 C41.875 73.375 41.875 73.375 41.75 76.5 C41.09 77.16 40.43 77.82 39.75 78.5 C39.62625 79.53125 39.5025 80.5625 39.375 81.625 C38.45319548 87.340188 35.93463145 91.72305283 32.75 96.5 C37.64651659 96.04451008 40.49963326 95.27745324 43.75 91.5 C44.72984111 88.48023105 45.44050094 85.48527144 46.07421875 82.375 C46.75 79.5 46.75 79.5 47.8359375 77.34375 C49.39994532 74.18899919 48.63400037 71.80026805 47.75 68.5 C45.52595716 65.70201062 43.93208775 64.65334143 40.37109375 64.19140625 C35.77387043 64.07493412 31.88820635 64.29295661 27.75 66.5 Z " fill="#0D0D0D" transform="translate(168.25,47.5)"/>
<path d="M0 0 C0.66 0.33 1.32 0.66 2 1 C-0.09503312 3.32091992 -2.20250365 5.63018199 -4.3125 7.9375 C-4.90740234 8.59685547 -5.50230469 9.25621094 -6.11523438 9.93554688 C-6.69208984 10.56396484 -7.26894531 11.19238281 -7.86328125 11.83984375 C-8.39219971 12.42113037 -8.92111816 13.00241699 -9.46606445 13.60131836 C-11 15 -11 15 -14 16 C-12.42840852 12.14245727 -9.98922513 9.85637068 -7 7 C-5.72652735 5.73181147 -4.45576341 4.46089807 -3.1875 3.1875 C-2.125 2.125 -1.0625 1.0625 0 0 Z " fill="#767676" transform="translate(82,156)"/>
<path d="M0 0 C0.66 0.33 1.32 0.66 2 1 C0.625 3.5 0.625 3.5 -1 6 C-1.66 6 -2.32 6 -3 6 C-3.33 6.66 -3.66 7.32 -4 8 C-6.5625 8.625 -6.5625 8.625 -9 9 C-6.21000549 5.51250686 -3.74764169 2.49842779 0 0 Z " fill="#777777" transform="translate(130,59)"/>
<path d="M0 0 C1.125 3.75 1.125 3.75 0 6 C0.66 6 1.32 6 2 6 C2.33 9.3 2.66 12.6 3 16 C1 15 1 15 -0.125 12.9375 C-1.36871371 8.7621754 -2.00848618 4.01697236 0 0 Z " fill="#7C7C7C" transform="translate(96,95)"/>
<path d="M0 0 C0.66 0.66 1.32 1.32 2 2 C1.828125 4.09375 1.828125 4.09375 1.25 6.5 C0.97929687 7.69109375 0.97929687 7.69109375 0.703125 8.90625 C0 11 0 11 -2 13 C-1.85966889 11.02043559 -1.7125877 9.04134859 -1.5625 7.0625 C-1.48128906 5.96035156 -1.40007812 4.85820312 -1.31640625 3.72265625 C-1 1 -1 1 0 0 Z " fill="#A8A8A8" transform="translate(207,125)"/>
<path d="M0 0 C0.33 1.32 0.66 2.64 1 4 C-0.65 5.32 -2.3 6.64 -4 8 C-4 4.09161134 -2.49432124 2.88405893 0 0 Z " fill="#737373" transform="translate(67,172)"/>
<path d="M0 0 C1.45922693 0.11409593 2.91740598 0.24165544 4.375 0.375 C5.59316406 0.47941406 5.59316406 0.47941406 6.8359375 0.5859375 C9 1 9 1 11 3 C8.625 3.625 8.625 3.625 6 4 C5.34 3.34 4.68 2.68 4 2 C2.68252676 1.30251417 1.35085807 0.63040043 0 0 Z " fill="#949494" transform="translate(176,48)"/>
<path d="" fill="#FEFEFE" transform="translate(0,0)"/>
<path d="" fill="#FEFEFE" transform="translate(0,0)"/>
<path d="" fill="#FEFEFE" transform="translate(0,0)"/>
</svg>
